<svg width="180" height="69" fill="none" xmlns="http://www.w3.org/2000/svg"><g clip-path="url(#a)"><path d="M151.166 68c25.513 0 28.348-2.835 28.348-28.349V28.312c0-25.513-2.835-28.348-28.348-28.348h-11.34c-25.513 0-28.348 2.835-28.348 28.348v11.34c0 25.513 2.835 28.347 28.348 28.347h11.34ZM154 53.825l-17.008 5.67V14.138L154 8.468v45.357ZM26.367 45.217l3.626-1.208v15.488h-3.626v-14.28Zm-7.22 14.28h3.626V36.851h-3.626v22.646Zm-7.222-15.49h3.626v15.488h-3.627v-2.254c-.98 1.766-2.844 2.647-5.489 2.647-4.116 0-6.47-2.353-6.47-8.136 0-5.783 2.354-8.137 6.47-8.137 2.648 0 4.51.882 5.49 2.648v-2.256Zm0 7.352c0-3.039-1.079-4.217-4.217-4.217s-4.117 1.176-4.117 4.217v.784c0 3.038 1.079 4.216 4.117 4.216 3.039 0 4.216-1.175 4.216-4.216v-.784Zm79.015-7.352h3.53v15.488h-3.53v-2.254c-1.078 1.766-2.94 2.647-5.588 2.647-4.117 0-6.373-2.353-6.373-8.136 0-5.783 2.254-8.137 6.373-8.137 2.647 0 4.51.882 5.588 2.648v-2.256Zm0 7.352c-.097-3.039-1.175-4.217-4.216-4.217-3.04 0-4.216 1.176-4.216 4.217v.784c0 3.038 1.175 4.216 4.216 4.216 3.04 0 4.117-1.175 4.216-4.216v-.784Zm-20.882-7.744c-2.548 0-4.217.982-5.001 2.845-.785-1.863-2.45-2.845-5.001-2.845-2.06 0-3.626.688-4.51 2.06V44.01h-3.53v15.488h3.53V50.38c0-2.354.882-3.236 3.235-3.236 2.353 0 3.138.882 3.138 3.236v9.117h3.626V50.38c0-2.354.785-3.236 3.138-3.236 2.354 0 3.235.882 3.235 3.236v9.117h3.53v-10.49c0-3.431-1.96-5.392-5.393-5.392h.003Zm-43.691-1.372h3.626v-3.529h-3.626v3.53Zm16.046 1.372c-2.45 0-4.216.882-5.195 2.451v-2.06h-3.626v15.489h3.626v-8.43c0-2.844.981-3.923 3.823-3.923s3.922 1.079 3.922 3.923v8.43h3.53v-9.803c0-3.922-2.157-6.079-6.08-6.079v.002ZM52.577 29.71c-2.68 0-4.15-.72-4.15-4.15 0-3.429 1.47-4.149 4.15-4.149 2.68 0 4.149.72 4.149 4.15 0 3.43-1.47 4.149-4.15 4.149Zm15.488-13.397V27.62H64.34c-3.007 0-3.828-1.034-4.043-3.279-.477-4.994-3.93-6.459-7.722-6.459-4.085 0-7.778 1.699-7.778 7.679 0 .752.058 1.437.169 2.06H22.738c-2.844 0-3.922-.427-3.922-3.923V8.47H15.19v16.502c0 4.575 2.027 6.176 6.079 6.176h25.354c1.462 1.548 3.644 2.092 5.952 2.092 2.83 0 5.472-.817 6.828-3.309.942.838 2.38 1.217 4.937 1.217h7.352V16.313h-3.627Zm0-6.046v3.626h3.627v-3.626h-3.627ZM80.91 37.684v-1.633h-1.276c-.881 0-1.536-.294-1.536-1.014 0-.588.458-.785 1.34-.785h.72v-1.6h-1.243c-1.666 0-2.516.751-2.516 1.894 0 .653.23 1.144.588 1.505h-1.275v1.633h5.198Zm6.403-6.537V8.469h-3.626v19.149h-9.574v3.529h13.202-.002ZM90.84 8.469v22.678h3.626V8.469h-3.626ZM13.426 31.147v-3.53h-2.712c-3.038 0-4.869-1.11-4.869-3.331 0-1.308.981-2.028 2.91-2.028h2.253V18.73H7.643c-3.267 0-5.424 1.96-5.424 4.837 0 1.666.426 2.974 1.372 4.052H-.035v3.529H13.43h-.003ZM76.528 9.679l3.626-1.208v16.731h-3.626V9.679Z" fill="#FDF8F5"/></g><defs><clipPath id="a"><path fill="#fff" d="M0 0h179.576v68.035H0z"/></clipPath></defs></svg>
