<svg xmlns="http://www.w3.org/2000/svg" xmlns:xlink="http://www.w3.org/1999/xlink" width="2000" zoomAndPan="magnify" viewBox="0 0 1500 1499.999933" height="2000" preserveAspectRatio="xMidYMid meet" version="1.0"><defs><g/><clipPath id="287e0a7d7d"><path d="M 858.320312 537.710938 L 1282.894531 537.710938 L 1282.894531 962.285156 L 858.320312 962.285156 Z M 858.320312 537.710938 " clip-rule="nonzero"/></clipPath><clipPath id="3ff172c6b2"><path d="M 1070.609375 537.710938 C 953.367188 537.710938 858.320312 632.757812 858.320312 750 C 858.320312 867.242188 953.367188 962.285156 1070.609375 962.285156 C 1187.851562 962.285156 1282.894531 867.242188 1282.894531 750 C 1282.894531 632.757812 1187.851562 537.710938 1070.609375 537.710938 Z M 1070.609375 537.710938 " clip-rule="nonzero"/></clipPath><clipPath id="c4eaf2b4d5"><path d="M 0.320312 0.710938 L 424.894531 0.710938 L 424.894531 425.285156 L 0.320312 425.285156 Z M 0.320312 0.710938 " clip-rule="nonzero"/></clipPath><clipPath id="c4a2ce9211"><path d="M 212.609375 0.710938 C 95.367188 0.710938 0.320312 95.757812 0.320312 213 C 0.320312 330.242188 95.367188 425.285156 212.609375 425.285156 C 329.851562 425.285156 424.894531 330.242188 424.894531 213 C 424.894531 95.757812 329.851562 0.710938 212.609375 0.710938 Z M 212.609375 0.710938 " clip-rule="nonzero"/></clipPath><clipPath id="30906af889"><rect x="0" width="425" y="0" height="426"/></clipPath><clipPath id="1e4ac4277d"><rect x="0" width="431" y="0" height="357"/></clipPath><clipPath id="6b7a233955"><rect x="0" width="404" y="0" height="168"/></clipPath></defs><g clip-path="url(#287e0a7d7d)"><g clip-path="url(#3ff172c6b2)"><g transform="matrix(1, 0, 0, 1, 858, 537)"><g clip-path="url(#30906af889)"><g clip-path="url(#c4eaf2b4d5)"><g clip-path="url(#c4a2ce9211)"><path fill="#fdf8f5" d="M 0.320312 0.710938 L 424.894531 0.710938 L 424.894531 425.285156 L 0.320312 425.285156 Z M 0.320312 0.710938 " fill-opacity="1" fill-rule="nonzero"/></g></g></g></g></g></g><path fill="#002134" d="M 1135.203125 475.058594 C 929.359375 429.378906 749.988281 608.75 795.667969 814.59375 C 818.917969 919.351562 901.183594 1001.605469 1005.941406 1024.867188 C 1211.785156 1070.546875 1391.15625 891.175781 1345.460938 685.332031 C 1322.214844 580.574219 1239.960938 498.308594 1135.203125 475.058594 Z M 1073.070312 930.933594 C 971.605469 932.308594 888.214844 848.917969 889.589844 747.453125 C 890.914062 649.492188 970.078125 570.320312 1068.050781 568.980469 C 1069.433594 568.957031 1070.570312 570.09375 1070.570312 571.480469 C 1070.570312 670.042969 1150.480469 749.953125 1249.042969 749.953125 C 1250.429688 749.953125 1251.566406 751.089844 1251.542969 752.472656 C 1250.203125 850.445312 1171.042969 929.609375 1073.070312 930.933594 Z M 1073.070312 930.933594 " fill-opacity="1" fill-rule="nonzero"/><g transform="matrix(1, 0, 0, 1, 320, 489)"><g clip-path="url(#1e4ac4277d)"><g fill="#002134" fill-opacity="1"><g transform="translate(0.525924, 257.535859)"><g><path d="M 74.3125 56.984375 C 52.945312 56.984375 36.644531 51.441406 25.40625 40.359375 C 14.164062 29.273438 8.546875 13.6875 8.546875 -6.40625 C 8.546875 -13.53125 9.535156 -21.441406 11.515625 -30.140625 C 13.492188 -38.847656 16.222656 -47.398438 19.703125 -55.796875 L 40.125 -49.625 C 37.113281 -42.96875 34.65625 -36.117188 32.75 -29.078125 C 30.851562 -22.035156 29.90625 -15.828125 29.90625 -10.453125 C 29.90625 0.316406 33.070312 8.664062 39.40625 14.59375 C 45.738281 20.53125 54.445312 23.5 65.53125 23.5 L 83.09375 23.5 C 89.738281 23.5 95.316406 22.707031 99.828125 21.125 C 104.335938 19.539062 107.976562 17.007812 110.75 13.53125 C 113.519531 10.050781 115.535156 5.460938 116.796875 -0.234375 C 118.066406 -5.929688 118.703125 -12.894531 118.703125 -21.125 L 118.703125 -175.6875 L 143.875 -175.6875 L 143.875 -21.125 C 143.875 5.625 138.253906 25.328125 127.015625 37.984375 C 115.773438 50.648438 98.207031 56.984375 74.3125 56.984375 Z M 74.3125 56.984375 "/></g></g></g><g fill="#002134" fill-opacity="1"><g transform="translate(186.652369, 227.860031)"><g><path d="M 29.90625 -84.984375 C 22.3125 -84.984375 16.019531 -87.554688 11.03125 -92.703125 C 6.050781 -97.847656 3.5625 -104.378906 3.5625 -112.296875 C 3.5625 -120.203125 6.050781 -126.726562 11.03125 -131.875 C 16.019531 -137.019531 22.234375 -139.59375 29.671875 -139.59375 C 33.472656 -139.59375 36.957031 -138.921875 40.125 -137.578125 C 43.289062 -136.234375 46.054688 -134.332031 48.421875 -131.875 C 50.796875 -129.425781 52.617188 -126.539062 53.890625 -123.21875 C 55.160156 -119.894531 55.796875 -116.253906 55.796875 -112.296875 C 55.796875 -104.378906 53.378906 -97.847656 48.546875 -92.703125 C 43.722656 -87.554688 37.507812 -84.984375 29.90625 -84.984375 Z M 31.34375 -103.75 C 34.5 -103.75 36.867188 -104.5 38.453125 -106 C 40.035156 -107.5 40.828125 -109.597656 40.828125 -112.296875 C 40.828125 -114.984375 40.035156 -117.078125 38.453125 -118.578125 C 36.867188 -120.085938 34.5 -120.84375 31.34375 -120.84375 L 28.25 -120.84375 C 25.238281 -120.84375 22.898438 -120.085938 21.234375 -118.578125 C 19.578125 -117.078125 18.75 -114.984375 18.75 -112.296875 C 18.75 -109.597656 19.578125 -107.5 21.234375 -106 C 22.898438 -104.5 25.238281 -103.75 28.25 -103.75 Z M 31.34375 -103.75 "/></g></g></g><g fill="#002134" fill-opacity="1"><g transform="translate(159.825432, 257.535859)"><g><path d="M 7.359375 25.875 L 21.84375 25.875 C 37.820312 25.875 50.441406 23.578125 59.703125 18.984375 C 68.960938 14.398438 75.253906 8.070312 78.578125 0 L 50.328125 0 C 37.503906 0 27.53125 -3.640625 20.40625 -10.921875 C 13.289062 -18.203125 9.734375 -28.332031 9.734375 -41.3125 C 9.734375 -49.21875 10.921875 -56.570312 13.296875 -63.375 C 15.671875 -70.1875 18.953125 -76.125 23.140625 -81.1875 C 27.335938 -86.257812 32.320312 -90.21875 38.09375 -93.0625 C 43.875 -95.914062 50.085938 -97.34375 56.734375 -97.34375 C 70.828125 -97.34375 81.988281 -91.523438 90.21875 -79.890625 C 98.445312 -68.253906 102.796875 -51.988281 103.265625 -31.09375 L 114.90625 -31.09375 L 114.90625 -6.40625 L 108.5 0 L 100.421875 0 C 96.304688 18.195312 87.835938 32.242188 75.015625 42.140625 C 62.203125 52.035156 45.03125 56.984375 23.5 56.984375 L 7.359375 56.984375 Z M 31.34375 -45.34375 C 31.34375 -40.28125 33.117188 -36.640625 36.671875 -34.421875 C 40.234375 -32.203125 45.335938 -31.09375 51.984375 -31.09375 L 81.4375 -31.09375 L 81.4375 -33.71875 C 81.4375 -43.6875 78.898438 -51.597656 73.828125 -57.453125 C 68.765625 -63.304688 62.195312 -66.234375 54.125 -66.234375 C 47.476562 -66.234375 42.019531 -64.253906 37.75 -60.296875 C 33.476562 -56.335938 31.34375 -51.351562 31.34375 -45.34375 Z M 31.34375 -45.34375 "/></g></g></g><g fill="#002134" fill-opacity="1"><g transform="translate(304.168434, 225.248559)"><g><path d="M 63.390625 -110.390625 L 6.40625 -84.28125 L 0 -98.28125 L 56.734375 -124.640625 Z M 63.390625 -110.390625 "/></g></g></g><g fill="#002134" fill-opacity="1"><g transform="translate(274.730016, 257.535859)"><g><path d="M -6.40625 -24.6875 L 0 -31.09375 L 14 -31.09375 C 22.238281 -31.09375 29.757812 -31.25 36.5625 -31.5625 C 43.363281 -31.882812 49.847656 -32.5625 56.015625 -33.59375 C 62.191406 -34.625 68.40625 -36.164062 74.65625 -38.21875 C 80.914062 -40.28125 87.765625 -43.128906 95.203125 -46.765625 L 107.78125 -52.9375 L 107.78125 -54.125 L 70.75 -61.96875 L 30.859375 -71.9375 L 30.859375 -53.171875 L 6.890625 -53.171875 L 6.890625 -71.453125 C 6.890625 -90.765625 15.75 -100.421875 33.46875 -100.421875 C 34.582031 -100.421875 35.769531 -100.378906 37.03125 -100.296875 C 38.300781 -100.222656 39.765625 -100.023438 41.421875 -99.703125 C 43.085938 -99.390625 45.109375 -98.957031 47.484375 -98.40625 C 49.859375 -97.851562 52.707031 -97.101562 56.03125 -96.15625 L 105.40625 -83.328125 C 112.53125 -81.585938 119.535156 -80.242188 126.421875 -79.296875 C 133.304688 -78.347656 139.832031 -77.875 146 -77.875 L 150.515625 -77.875 L 150.515625 -46.53125 L 131.765625 -46.53125 L 106.59375 -30.15625 C 96.300781 -23.5 87.117188 -18.15625 79.046875 -14.125 C 70.984375 -10.09375 63.347656 -7.046875 56.140625 -4.984375 C 48.941406 -2.929688 41.976562 -1.585938 35.25 -0.953125 C 28.53125 -0.316406 21.445312 0 14 0 L -6.40625 0 Z M -6.40625 -24.6875 "/></g></g></g></g></g><g transform="matrix(1, 0, 0, 1, 347, 808)"><g clip-path="url(#6b7a233955)"><g fill="#002134" fill-opacity="1"><g transform="translate(0.2011, 132.14759)"><g><path d="M 26.703125 -43.78125 L 26.703125 0 L 12.9375 0 L 12.9375 -96.09375 L 26.703125 -96.09375 L 26.703125 -55.890625 L 72.6875 -55.890625 L 72.6875 -96.09375 L 86.453125 -96.09375 L 86.453125 0 L 72.6875 0 L 72.6875 -43.78125 Z M 26.703125 -43.78125 "/></g></g></g><g fill="#002134" fill-opacity="1"><g transform="translate(99.589612, 132.14759)"><g><path d="M 25.875 -24.234375 L 16.109375 0 L 1.65625 0 L 42.671875 -96.09375 L 57.140625 -96.09375 L 97.75 0 L 82.734375 0 L 72.96875 -24.234375 Z M 68.5625 -35.515625 L 49.421875 -83.15625 L 30.28125 -35.515625 Z M 68.5625 -35.515625 "/></g></g></g><g fill="#002134" fill-opacity="1"><g transform="translate(196.500175, 132.14759)"><g><path d="M 68.84375 -83.984375 L 47.765625 0 L 29.328125 0 L 0.28125 -96.09375 L 15.421875 -96.09375 L 38.40625 -13.765625 L 38.6875 -13.765625 L 59.203125 -96.09375 L 78.75 -96.09375 L 99.53125 -13.765625 L 99.8125 -13.765625 L 122.796875 -96.09375 L 137.390625 -96.09375 L 107.796875 0 L 90.03125 0 L 69.109375 -83.984375 Z M 68.84375 -83.984375 "/></g></g></g><g fill="#002134" fill-opacity="1"><g transform="translate(334.157363, 132.14759)"><g><path d="M 25.875 -96.09375 L 25.875 -12.109375 L 66.078125 -12.109375 L 66.078125 0 L 12.109375 0 L 12.109375 -96.09375 Z M 25.875 -96.09375 "/></g></g></g></g></g></svg>