<svg xmlns="http://www.w3.org/2000/svg" xmlns:xlink="http://www.w3.org/1999/xlink" width="2000" zoomAndPan="magnify" viewBox="0 0 1500 1499.999933" height="2000" preserveAspectRatio="xMidYMid meet" version="1.0"><defs><clipPath id="b54df1e0c5"><path d="M 282.289062 298.277344 L 1217.710938 298.277344 L 1217.710938 1233.699219 L 282.289062 1233.699219 Z M 282.289062 298.277344 " clip-rule="nonzero"/></clipPath><clipPath id="d7066856c8"><path d="M 750 298.277344 C 491.691406 298.277344 282.289062 507.679688 282.289062 765.988281 C 282.289062 1024.296875 491.691406 1233.699219 750 1233.699219 C 1008.308594 1233.699219 1217.710938 1024.296875 1217.710938 765.988281 C 1217.710938 507.679688 1008.308594 298.277344 750 298.277344 Z M 750 298.277344 " clip-rule="nonzero"/></clipPath><clipPath id="c6d8b14ac3"><path d="M 0.289062 0.277344 L 935.710938 0.277344 L 935.710938 935.699219 L 0.289062 935.699219 Z M 0.289062 0.277344 " clip-rule="nonzero"/></clipPath><clipPath id="4c221855f7"><path d="M 468 0.277344 C 209.691406 0.277344 0.289062 209.679688 0.289062 467.988281 C 0.289062 726.296875 209.691406 935.699219 468 935.699219 C 726.308594 935.699219 935.710938 726.296875 935.710938 467.988281 C 935.710938 209.679688 726.308594 0.277344 468 0.277344 Z M 468 0.277344 " clip-rule="nonzero"/></clipPath><clipPath id="d98d09096b"><rect x="0" width="936" y="0" height="936"/></clipPath></defs><g clip-path="url(#b54df1e0c5)"><g clip-path="url(#d7066856c8)"><g transform="matrix(1, 0, 0, 1, 282, 298)"><g clip-path="url(#d98d09096b)"><g clip-path="url(#c6d8b14ac3)"><g clip-path="url(#4c221855f7)"><path fill="#fdf8f5" d="M 0.289062 0.277344 L 935.710938 0.277344 L 935.710938 935.699219 L 0.289062 935.699219 Z M 0.289062 0.277344 " fill-opacity="1" fill-rule="nonzero"/></g></g></g></g></g></g><path fill="#002134" d="M 892.3125 160.242188 C 438.800781 59.597656 43.609375 454.789062 144.253906 908.300781 C 195.476562 1139.101562 376.722656 1320.320312 607.523438 1371.570312 C 1061.035156 1472.214844 1456.222656 1077.023438 1355.554688 623.511719 C 1304.332031 392.714844 1123.109375 211.464844 892.3125 160.242188 Z M 755.421875 1164.621094 C 531.878906 1167.648438 348.152344 983.921875 351.179688 760.375 C 354.101562 544.554688 528.511719 370.117188 744.359375 367.167969 C 747.414062 367.113281 749.917969 369.621094 749.917969 372.671875 C 749.917969 589.824219 925.972656 765.878906 1143.125 765.878906 C 1146.175781 765.878906 1148.683594 768.386719 1148.628906 771.4375 C 1145.683594 987.285156 971.269531 1161.699219 755.421875 1164.621094 Z M 755.421875 1164.621094 " fill-opacity="1" fill-rule="nonzero"/></svg>