<svg version="1.2" xmlns="http://www.w3.org/2000/svg" viewBox="0 0 1566 1527" width="1566" height="1527">
	<title>Al_Rajhi_Bank_Logo-svg</title>
	<style>
		.s0 { fill: #221afb } 
	</style>
	<g id="_x39_u7Tlw_00000148636920449813617690000003798258439039256462_">
		<g id="Layer">
			<path id="Layer" fill-rule="evenodd" class="s0" d="m1205.3 623.6c48.4 27.8 95.4 54.9 142.5 82 34.7 20 69.6 39.8 104.1 60.2 62.9 37.2 99.5 92.6 111.6 164.4 1.3 7.8 1.3 16 1.3 24 0.1 80.2 0.4 160.4 0 240.7-0.3 54.4-20.8 101.2-55.9 142.2-18.7 22-41.9 38.2-66.9 52.4q-91.6 52.4-182.8 105.4c-40 23.3-83.1 34-129.1 31.5-33.8-1.8-66-10.5-95.5-27.3q-117.7-67.3-234.8-135.7c-11.4-6.6-19.9-8-32.4-0.7-76.3 45-153.4 88.7-230.1 133-39.7 23-82.5 33.1-128 30.7-39.4-2-75.5-15.2-109.5-35.1-61.9-36.2-124.6-71-186-108-72.5-43.7-111.6-108.3-112.7-193.7-0.9-76.7-0.2-153.3-0.2-230 0-54.9 18.9-102.6 53.8-144.5 18.1-21.8 40.4-38.5 65-52.6 76.9-44.1 153.4-88.7 230.4-132.6 8.3-4.8 10.6-10.1 10.5-19-0.2-90.9-1.4-181.8 0.2-272.7 1.5-81.9 37.3-147 107.1-190.4 55.9-34.8 113.9-66.3 171-99.2 15-8.6 30.1-17.3 45.5-25.2 24.5-12.6 50.6-19 78-21.7 50.7-5 96.8 7.5 140.4 32.8 60.8 35.2 121.6 70.7 182.9 105.2 50.2 28.4 85.5 69 106 122.7 8.9 23.5 13.5 48 13.5 73 0.3 90.9 0.2 181.9 0.2 272.8-0.1 4.9-0.1 9.7-0.1 15.4zm-423.1 587.7c1.8-0.5 2.3-0.5 2.6-0.7 77.2-44.5 154.9-88 231.2-133.7 42.1-25.2 64.4-64.1 64.4-114.2 0.1-85.1-0.1-170.2 0.2-255.3 0.1-8.7-2.5-13.5-10.1-17.8-73.9-42.2-147.1-85.4-221.2-127.1-44.6-25-90.5-24-134.9 1.2-72.8 41.4-145 83.6-217.7 125-8.4 4.8-11.6 9.9-11.6 19.8 0.4 83.7 0.3 167.5 0.2 251.2 0 53.9 24.6 93.5 70.1 120.8 20.2 12.2 40.8 23.6 61.3 35.4 55.1 31.8 110.2 63.5 165.5 95.4zm-421.7-444.1c-6 3.2-9.5 4.9-13 6.9-55.5 32.1-110.8 64.6-166.6 96.1-37.2 21-56.3 52.5-56.7 94.6-0.7 73.5-0.6 147.1 0 220.6 0.3 40.7 18.7 71.7 54 92.2 64.7 37.6 129.3 75.2 194.4 112 32.1 18.2 66 19 98.2 1 59.9-33.4 118.9-68.3 178.3-102.6 2.4-1.4 4.5-3.4 7.2-5.5-3.6-2.5-6.1-4.4-8.7-5.9-50.6-29.1-101.1-58.3-151.8-87.1-40.7-23.2-73.7-54.3-97.9-94.5-25.5-42.1-37.4-88.1-37.4-137.2-0.1-57.9 0-115.9 0-173.8 0-4.9 0-9.7 0-16.8zm548.2 515.3c4.7 3.1 8.2 5.8 11.9 7.9q85 49 170.1 97.8c34.6 19.9 69.7 20.1 104.1 0.6 65.4-37.1 130.4-74.9 195.3-112.9 33.9-19.8 51.2-50.3 51.5-89.3 0.6-74.4 0.8-148.8 0-223.2-0.5-40.4-18.6-71.4-54.3-91.8-50.2-28.7-100.2-57.9-150.3-86.8-9.8-5.7-19.9-11.1-31.6-17.6 0 7 0 11.7 0 16.5 0 59.7 0.1 119.4-0.2 179.1 0 12-0.7 24.1-2.6 35.9-13.4 81-54.5 143.7-125.3 186.1-30.9 18.6-62.3 36.2-93.5 54.3-24.6 14.2-49.2 28.4-75.1 43.4zm-423.3-731c5.3-2.7 8.8-4.3 12.2-6.2 51.7-29.7 103.1-59.9 155.2-88.9 86.3-48 173.5-47.5 259.8-0.6 52.8 28.7 104.2 59.9 156.2 89.9 3.3 1.9 6.8 3.3 11 5.3 0.3-3.8 0.6-6 0.6-8.2 0-70.4 0.1-140.8 0-211.2 0-4.8-0.9-9.7-1.9-14.4-6.9-30.5-24.8-52.8-51.6-68.2-63.6-36.6-127.2-73.4-190.9-109.8-35.5-20.2-71.2-19.7-106.7 0.3-19 10.8-37.8 21.8-56.7 32.7-45.8 26.5-92 52.4-137.5 79.6-32.5 19.5-49.7 48.8-49.7 87.2-0.1 65.5 0 131 0 196.5 0 4.7 0 9.4 0 16z"/>
		</g>
	</g>
</svg>