<svg version="1.2" xmlns="http://www.w3.org/2000/svg" viewBox="0 0 1551 755" width="1551" height="755"><defs><linearGradient id="P" gradientUnits="userSpaceOnUse"/><linearGradient id="g1" x2="1" href="#P" gradientTransform="matrix(0,-292.418,427.606,0,481.607,293.402)"><stop stop-color="#84bd00"/><stop offset="1" stop-color="#006a52"/></linearGradient></defs><style>.a{fill:url(#g1)}.b{fill:#034638}</style><path class="a" d="m324.3 98.4c-21.4 20.1-40.8 42.3-57.9 66.2 28.7 40.3 51 85.2 65.3 133.3 30.1-70.6 84.1-128.5 152-163.5 67.9 35 122.2 92.9 152 163.8 14.3-48.4 36.6-93.3 65.3-133.6-17.2-23.9-36.5-46.2-58-66.2-45.3-42.8-99.5-76.2-159.5-97.4-59.7 21.2-114 54.6-159.2 97.4z"/><path class="b" d="m4.1 710.9c4.3-29 4.3-57.9 0-87 49.1 46.8 161 69.3 256.9 69.3 77.8 0 110.2-17.2 110.2-51.6 0-45.9-49-51.1-165.6-60.9-128.2-11.5-205.5-31.9-205.5-110.7 0-78.9 69.6-115.9 211.8-115.9 99.8 0 159.3 13.6 233.1 31.3-4.2 28.2-4.2 54.9 0 81.3-60.8-25-141.1-50.7-236.4-50.7-80.5 0-114.6 16.3-114.6 51.2 0 41.6 41.8 52.7 148.6 60.9 134.4 10.4 222.8 28.7 222.8 112.6 0 77.1-71 114.2-212.9 114.2-95.6 0.3-182.5-19.6-248.4-44z"/><path class="b" d="m627.8 433.4c-1.4 104.8 0 211.3 4.9 316.1h-94.2c4.2-129.4 4.2-259.3 0-388.7 34.6 4.2 95 5.2 129.7 0 80.5 108.1 164.6 214.6 252.5 319.2 1.5-106.3 0.6-213.3-4.8-319.2 33 4.8 63.8 5.2 93 0-3.7 129.4-3.1 259.3 1.5 388.7h-126.6c-81.9-106.9-167-212.8-256-316.1z"/><path class="b" d="m1099.6 359.8c70.6 0 137-1.4 236.3-1.4 123.3 0 190.9 28.7 190.9 97.5 0 61.5-55 85.5-122.4 88.2v6.8c83.6 2.2 146.5 30.3 146.5 96.7 0 93.9-129 105.2-222.8 105.2-109.2 0-156.4-3-228.5-3 6.3-97.9 6.3-292.4 0-390zm236.7 172.1c64.4 0 95.6-18.8 95.6-57.3 0-41.2-34.5-55.3-95.6-55.3-61.1 0-114.6 0-143.8 0.6-0.9 34.4-1.5 71.4-0.9 111 44.3 0.6 93.9 1 144.7 1zm-142.8 157.6c41.2 0.8 73.1 2 139 2 94.1 0 117.6-27.6 117.6-58.5 0-27.6-23.5-50.6-114-50.6-50.8 0-100.4 0-144.7 0.6 0 35.6 1.1 73.7 2.1 106.5z"/></svg>